<svg id="Layer_1" data-name="Layer 1" xmlns="http://www.w3.org/2000/svg" viewBox="0 0 705.04 822.6"><defs><style>.cls-1{fill:#333}</style></defs><title>Artboard 37lights</title><path class="cls-1" d="M506.93 407.42l60-49.54a8 8 0 0 0-10.18-12.33l-60 49.54a8 8 0 1 0 10.18 12.33zm62.59 103a8 8 0 0 0 .54-16l-60.7-4.19a8 8 0 0 0-1.1 15.95L569 510.4zm11.54 128.74l-57.91-32.1a8 8 0 1 0-7.75 14l57.91 32.1a8 8 0 0 0 7.75-14zm-372.19 1.3l-54.42 40.87a8 8 0 0 0 9.6 12.78l54.42-40.87a8 8 0 1 0-9.6-12.78zM187 519.49a8 8 0 0 0-9-6.84l-51.22 7a8 8 0 0 0 2.16 15.84l51.22-7a8 8 0 0 0 6.84-9zm-44.16-120.4l62.79 20.24a8 8 0 0 0 4.9-15.21l-62.8-20.24a8 8 0 0 0-4.9 15.21z"/><path class="cls-1" d="M473.73 692.53c-8.4-5.89-18-7.85-26.46-9.58-2.22-.46-4.38-.9-6.42-1.39-2.16-14.29-10.26-29.37-17.92-40.54a75.92 75.92 0 0 0 34-19.44c20-19.66 30.22-50.14 30.5-90.61.91-133.85-57.51-216.47-60-219.92a7.82 7.82 0 0 0-6.91-3.31l-2.39.13L402.34 186a8 8 0 0 0-6.59-6.85l-46-7.81-11-11.61a7.9 7.9 0 0 0-6.07-2.48 8 8 0 0 0-5.89 2.89L314.47 175l-39.6 18.72a8 8 0 0 0-4.57 7L266.65 316l-4.06.22a8 8 0 0 0-7.18 5.55c-1.76 5.5-43 135.63-41.55 223.74 1.11 66.8 46.08 94.33 76.8 101.68-4.64 10.77-10.7 27.44-10.93 40.07-11.8 5-32.26 15.92-41.26 26-10.7 12-11.25 38.57-11.25 43.78a8 8 0 0 0 4.35 7.11c41.17 21.09 87.83 25.58 119.72 25.62h.45c48.23 0 110-12 139.56-38.72a8 8 0 0 0 2.6-6.56c-2.19-27.34-8.6-43.85-20.17-51.96zm-178-5.55c.38-9.17 6-26 11.26-37.25q10.62 1.2 21.1 1.66a7.87 7.87 0 0 0 .92.06h.18q6 .24 12 .25a280.33 280.33 0 0 0 40.72-2.94 7.9 7.9 0 0 0 1.15-.17q11.38-1.72 22.48-4.38c7.68 9.91 17 25.37 19.36 38.48C392.07 695 322.54 695.94 295.69 687zm9.08-396.11c11.29-5.26 61.09-10.42 73.71-7.64.87 4.73.93 15.93.41 26.75l-72.61 3.91c-.93-9.31-1.59-18.66-1.55-23.02zM385.09 632l-17.64-26.79a8 8 0 0 0-6.68-3.6h-16.36a8 8 0 0 0-7.27 4.68L324 635.16q-8.3-.5-16.7-1.5c-37-65.75-20.44-129.74 3-194.8a215 215 0 0 0 75.92-2.59c35 73.13 40.38 136.07 16.51 192.14q-8.73 2.12-17.64 3.59zm-17.59 2.4q-12.92 1.28-26.19 1.28l8.23-18h6.93zm31.24-208.85l6.44-70.88c28.69 83.56 53.06 163 26.27 229.49 6.62-48.1-4.25-100.48-32.71-158.62zm-12.18-100a7.8 7.8 0 0 0 .85 0l4.37-.24-8.65 95.27A198.92 198.92 0 0 1 312 423l-14.56-92.58zm-89.78 103.61c-19 52.12-35.16 106.84-22.65 162.69-23.74-57.44-7.58-144.1 12.35-228.15zm174.66 101.7c-.41 59.64-24.06 82.36-42.26 91 56.7-82.59 20.53-187.33-14.55-288.86l-3-8.79 5.22-.28c10.83 17.01 55.36 93.65 54.59 206.93zM286.13 206.05l36.78-17.39a8 8 0 0 0 2.74-2.13l7.72-9.31 6.65 7a8 8 0 0 0 4.46 2.37l42.77 7.27 14.86 114.86-7.14.38c1.45-29.87-2.51-34.91-3.9-36.66-2.09-2.65-5.57-7.07-35.57-5.58-15.83.78-33.12 3-45.14 5.76-11.56 2.66-19.56 5.86-21.09 12.81-1 4.69 0 18.77 1 29.31l-7.62.41zm-56.29 339.22c-1.25-75.75 31.43-187.92 39.17-213.36l8.82-.47c-26.32 107.56-53.15 225.32-4.42 292-20-10.75-42.82-32.86-43.57-78.17zm121.87 228.52h-.41c-29 0-70.71-3.9-108-21.64.57-10.27 2.81-23.52 7-28.23 7.22-8.07 27.88-18.94 37.55-22.75 14 5.39 36.53 8 60.51 8 31.58 0 65.57-4.48 85.47-12.89 3.34 1 6.79 1.66 10.16 2.35 7.61 1.56 14.81 3 20.49 7 6.71 4.7 11.09 16.84 13 36.09-27.48 22.03-83.62 32.07-125.77 32.07z"/><path class="cls-1" d="M342.35 494.42a8 8 0 0 0-4.47 8.41c2.46 16.33-2.64 27.36-7.58 38-4.41 9.54-9 19.4-7.26 31.57 1.84 13.1 8.64 19.55 14 22.65a8 8 0 0 0 8-13.85c-3.34-1.93-5.42-5.64-6.18-11-1.06-7.5 2-14.17 5.94-22.62 3-6.49 6.42-13.87 8.29-22.8 8.49 14.13 13.11 29 12.08 40.58-.56 6.31-3.15 11.67-7.11 14.69a8 8 0 0 0 9.7 12.71c7.53-5.74 12.39-15.22 13.34-26 1.87-21.15-9.68-48.83-29.41-70.51a8 8 0 0 0-9.34-1.83z"/></svg>