<svg id="Layer_1" data-name="Layer 1" xmlns="http://www.w3.org/2000/svg" viewBox="0 0 705.04 705.04"><defs><style>.cls-1{fill:#ffe44d}</style></defs><title>Artboard 38lights</title><path class="cls-1" d="M597.94 224a821.77 821.77 0 0 0-68.06-58.87 451.83 451.83 0 0 0-68.69-48.87A264.9 264.9 0 0 0 437.53 104c-8.19-4.51-16.54-8.8-25.18-12.71-34.12-15.43-73.39-30.81-112.78-31-51.72-.25-88.5 22.42-124.19 51.19-1.32 1.06-2.6 2.16-3.91 3.23a171.4 171.4 0 0 0-38.17 34.85 246.55 246.55 0 0 0-23 16.62c-34.61 28.22-63 69.49-71.54 109.88-6.21 29.43-6.38 53.63-.77 83 3.52 18.47 12.64 35.84 21.66 53 5.84 15.86 8.1 32.09 12.68 48.42 9.67 34.45 31.12 63.74 58.59 89.9 21.08 20.08 48.21 36.74 73.81 52.15 24.62 14.82 51.75 25.19 80.12 33.84 62.7 19.13 133.51 11.45 191.57-14.89 53.4-24.23 92.52-64.71 126.42-106.15 31.16-38.09 59.62-80.06 66.65-126.69C679.13 324.43 646.84 271 597.94 224z"/></svg>