<svg id="Layer_1" data-name="Layer 1" xmlns="http://www.w3.org/2000/svg" viewBox="0 0 705.04 705.04"><defs><style>.cls-1{fill:#ffe44d;}</style></defs><title>Artboard 36lights</title><path class="cls-1" d="M649.73,235.61c-26.88-50.4-71.81-87.33-117.79-119.33C489.68,86.87,443.11,60,391.36,53.37c-71.28-9.14-130.58,21.34-182.76,67.5a828.29,828.29,0,0,0-65.32,64.25A435,435,0,0,0,89,250a239,239,0,0,0-13.57,22.33c-5,7.73-9.77,15.62-14.1,23.77C44.26,328.26,27.19,365.33,27,402.51c-.27,48.82,24.88,83.54,56.8,117.23,1.18,1.25,2.39,2.46,3.59,3.69a175,175,0,0,0,38.67,36,238.06,238.06,0,0,0,18.45,21.76c31.32,32.67,77.11,59.48,121.93,67.53,32.66,5.86,59.51,6,92.15.73,20.5-3.32,39.77-11.94,58.78-20.45,17.6-5.51,35.61-7.64,53.73-12,38.22-9.13,70.73-29.38,99.76-55.3,22.29-19.9,40.77-45.51,57.87-69.68,16.44-23.24,27.95-48.85,37.55-75.63C687.48,357.26,679,290.42,649.73,235.61Z"/></svg>