<svg id="Layer_1" data-name="Layer 1" xmlns="http://www.w3.org/2000/svg" viewBox="0 0 705.04 822.6"><defs><style>.cls-1{fill:#333;}</style></defs><title>Artboard 39lights</title><path class="cls-1" d="M217.1,281.84a8,8,0,1,0-12.9,9.44L247,349.75a8,8,0,1,0,12.9-9.44Z"/><path class="cls-1" d="M346,335.16h.39a8,8,0,0,0,7.6-8.37l-4-82.85a8,8,0,0,0-16,.77l4,82.85A8,8,0,0,0,346,335.16Z"/><path class="cls-1" d="M499.58,280.47a8,8,0,0,0-11.27.9L431.74,347.8a8,8,0,0,0,12.17,10.37l56.56-66.43A8,8,0,0,0,499.58,280.47Z"/><path class="cls-1" d="M446.17,403.5c0-.13,0-.25,0-.37a10.25,10.25,0,0,0-1.33-4.08c-9.33-16-82.35-16.47-83.08-16.47h0c-20.28,0-40.89,2-58,5.73-28.38,6.11-30.46,13-31.35,15.94a10.11,10.11,0,0,0-.41,2.3c-.85,6.4-3.56,32.31,5.89,44.7,3.76,6.36,18.41,30.59,30.53,42.51,1.74,25.84,2.57,62.52,3.44,101.28,1.4,61.92,3,132.09,8.73,178,2.92,23.35,17.09,31.14,28.46,33.56a50.47,50.47,0,0,0,10.48,1.08c17.27,0,34.22-8.32,38.1-20s9.9-224.79,9-288c4.55-10.17,25.05-36.49,37.46-51.34l.1-.13.15-.2a8,8,0,0,0,.54-.82l.06-.09,0,0a7.91,7.91,0,0,0,.41-.88C447.69,440.45,448,426.1,446.17,403.5Zm-84.51-4.93h0c25.14,0,49,3.14,61.55,6.31a133.84,133.84,0,0,1-17.51,4.59c-5.29-1.05-22-3.93-47-3.93-24.25,0-38.34,3.22-43.35,4.63-7.25-1.1-13.57-2.37-18.6-3.66C309.36,402.79,332.19,398.57,361.66,398.57Zm29.31,97a8,8,0,0,0-.47,2.84c1.11,66.2-5.39,272.09-8.17,284.31-1.51,4.53-16.38,11.24-30.09,8.32-9.55-2-14.46-8.17-15.92-19.9-5.64-45.15-7.22-114.89-8.61-176.43-.78-34.23-1.51-66.86-2.88-92.05,8.1,1.85,17.6,2.29,24.67,2.29,5.21,0,9.1-.23,10.17-.31a8,8,0,0,0,7.44-8.5,8.08,8.08,0,0,0-8.5-7.45c-10.16.67-28.85.31-35.8-3.48a9.57,9.57,0,0,1-1.22-.82,8,8,0,0,0-1-.81c-4.19-3.71-10.62-12-17.13-21.58,16.94,3.14,38.27,4.14,53.16,4.43h.16a8,8,0,0,0,.15-16c-28-.54-61.38-4.23-66.41-8.72-2.9-3.48-3.81-12.67-3.66-21.49,16.93,5.49,47.11,9.46,75.58,9.47h.07a252.6,252.6,0,0,0,43.63-4.06,7.91,7.91,0,0,0,2-.39,128.13,128.13,0,0,0,22.9-6.39c.35,8.63.34,16.49-.22,19.92-12,9.86-30,10-31.08,10h-.19a8,8,0,0,0-.13,16h.35a73.45,73.45,0,0,0,11.59-1.08C402.52,475.45,393.57,488.33,391,495.55Z"/><path class="cls-1" d="M352.71,534.66c-8.79,2.06-14.77,8.73-16,17.85h0c-2.19,16.37,1.64,33.91,9.3,42.66,4.58,5.23,9.48,6.33,12.79,6.33,4.21,0,10.37-2.13,15.78-12.3,6.38-12,11.19-34.58,3.63-45.79C373.33,536.16,362.33,532.4,352.71,534.66Zm12.22,34.16c-1.79,8.43-4.82,14.11-6.61,16.21-3-2.9-7.73-15.6-5.76-30.4h0c.34-2.58,1.44-3.86,3.79-4.41,3.76-.89,7.78.89,8.6,2.13C366.05,554,366.76,560.15,364.92,568.82Z"/></svg>