<svg id="Layer_1" data-name="Layer 1" xmlns="http://www.w3.org/2000/svg" viewBox="0 0 705.04 822.6"><defs><style>.cls-1{fill:#333;}</style></defs><title>Artboard 35lights</title><path class="cls-1" d="M524.08,498.16l-39.26-31.69a8,8,0,0,0-10,12.44L514,510.6a8,8,0,0,0,10-12.44Z"/><path class="cls-1" d="M537.84,330.94H484.43a8,8,0,1,0,0,16h53.41a8,8,0,1,0,0-16Z"/><path class="cls-1" d="M499.29,190.44A8,8,0,0,0,488,189.6l-45.2,38.94a8,8,0,0,0,10.44,12.11l45.2-38.94A8,8,0,0,0,499.29,190.44Z"/><path class="cls-1" d="M169.64,196.59,220.7,236a8,8,0,0,0,9.77-12.65l-51.06-39.44a8,8,0,1,0-9.77,12.65Z"/><path class="cls-1" d="M199,355.64a8,8,0,0,0-8-8H135.2a8,8,0,0,0,0,16H191A8,8,0,0,0,199,355.64Z"/><path class="cls-1" d="M221,495.51l-38.15,27a8,8,0,1,0,9.23,13l38.15-27a8,8,0,1,0-9.23-13Z"/><path class="cls-1" d="M411.43,287.1a8,8,0,0,0-9-4.83,13.71,13.71,0,0,0-9.24,6.23c-4.5-11.17-11.45-22.42-29.55-37.56-23.76-19.87-29.66-35.54-23.34-62.08a8,8,0,0,0-11.2-9.07c-16,7.59-26.82,25.36-30.48,50-2.85,19.21-.86,40.83,5,53.78,3.58,8,12.1,29.62,10.55,51.72-5.4-19.45-12.58-28.7-19.14-37.15a8,8,0,0,0-13.44,8.52c6.2,12.2.26,28-7.27,48-5.16,13.73-11,29.29-14.06,46.92-2,11.43-3.7,34.08,6.91,57.31,9.09,19.91,24.89,35.37,47.05,46.13,10.16,92.15,35.82,227,44.55,259.83l1.39,5.24c5.6,21.18,9.31,35.17,17.14,42a19.36,19.36,0,0,0,12.87,4.83,22,22,0,0,0,12.58-4.1c13.31-9.3,11.11-23.34,6.31-54.1-3.37-21.58-8.47-54.2-11.76-103.05-2.76-41-3-97.63-2.63-147.63,24.51-16.29,42.33-38,49.47-61.27,14.4-46.89-2.16-86.52-23.12-136.7C417.9,302.81,414.69,295.14,411.43,287.1ZM393.57,799.85c-.35.24-3.49,2.33-5.75.35-4.17-3.65-8.08-18.45-12.23-34.12l-1.4-5.27c-7-26.34-25.09-119.48-37-202.49a39,39,0,0,0,3.32,2.3c6.63,4.09,14.3,6.14,23.14,6.14a72.21,72.21,0,0,0,15-1.7c.22,33.07,1,65.58,2.72,91.81,3.34,49.55,8.5,82.59,11.91,104.45C397.39,787.87,398.46,796.43,393.57,799.85Zm-15-251.19c-12.82,3.28-22.55,2.73-29.65-1.64-8.35-5.15-14-16.32-17.51-34.94l.75.26a8,8,0,0,0,5-15.18c-2.15-.71-4.89-1.7-8-3-.19-1.91-.38-3.8-.56-5.67-5.33-55.67-2.52-81.3,9.41-85.72a30.43,30.43,0,0,1,10.6-1.93,30,30,0,0,1,17.32,5.57,32.18,32.18,0,0,1,13.56,27.13c-.07,6.38-.15,13.41-.24,20.95-.16,13.56-.34,28.76-.48,44.8a153.4,153.4,0,0,1-15.62,7.94,8,8,0,1,0,6.42,14.64q4.64-2,9.07-4.31C378.54,527.76,378.51,538.19,378.53,548.66ZM428.82,442.2c-5.19,16.88-17.24,33-34,46.17.12-12,.25-23.32.38-33.71.09-7.55.17-14.58.24-21a48.58,48.58,0,0,0-20.35-40.37,45.64,45.64,0,0,0-42.67-5.56c-20.86,7.73-26.1,32.54-20.2,97.6-20.83-13.19-43.67-37.85-36.22-81,2.78-16.13,8.35-30.94,13.27-44,3.23-8.59,6.29-16.74,8.35-24.55,2.58,8.1,4.8,18.54,6.43,32.64a8,8,0,0,0,14.63,3.45c22.5-34.48,7.15-77.8-.49-94.82-3.76-8.38-6.53-26-3.73-44.89,1-6.51,3.08-16,7.63-24.11.54,23.84,13,39.8,31.33,55.12C374,280.39,377.32,290.56,382,304.63c1.27,3.82,2.58,7.77,4.31,12.2a8,8,0,0,0,14.51.83,34.3,34.3,0,0,0,2.82-7.55l2.61,6.25C426.72,365.4,441.53,400.83,428.82,442.2Z"/></svg>