<svg id="Layer_1" data-name="Layer 1" xmlns="http://www.w3.org/2000/svg" viewBox="0 0 705.04 705.04"><defs><style>.cls-1{fill:#ffe44d;}</style></defs><title>Artboard 33lights</title><path class="cls-1" d="M631.82,363.6c-.3-1.51-.63-3-.95-4.5a156.54,156.54,0,0,0-12-45.73,212.89,212.89,0,0,0-3.54-25.27c-8.05-39.67-29.85-81.83-59.88-109.35-21.88-20-42.11-33-69.31-44.61-17.08-7.29-35.77-10-54.21-12.65-15.94-4.25-30.57-11.25-46.34-16.64C352.32,93.48,318.07,93.24,283.72,99c-26.36,4.39-52.58,14.91-77.06,25-23.54,9.7-44.49,23.57-64.55,39.22-44.34,34.59-69.87,89.19-74,144.6-3.78,51,12.53,100.35,32,146.53,17.88,42.44,40.25,85,76.19,114.78,49.51,41,108.91,46.31,170.43,36.37a740.75,740.75,0,0,0,80.1-17.34,389,389,0,0,0,72-23.08,213.65,213.65,0,0,0,20.93-10.39c7.48-3.45,14.85-7.14,22-11.23,28.34-16.16,59-36,76.91-64C642.26,442.6,639.84,404.33,631.82,363.6Z"/></svg>